<svg width="45" height="45" viewBox="0 0 45 45" fill="none" xmlns="http://www.w3.org/2000/svg">
<path d="M22.24 0.373291C10.1696 0.373291 0.373291 10.1696 0.373291 22.24C0.373291 34.3104 10.1696 44.1066 22.24 44.1066C34.3104 44.1066 44.1066 34.3104 44.1066 22.24C44.1066 10.1696 34.3104 0.373291 22.24 0.373291ZM22.24 6.93329C25.8698 6.93329 28.8 9.86342 28.8 13.4933C28.8 17.1232 25.8698 20.0533 22.24 20.0533C18.6101 20.0533 15.68 17.1232 15.68 13.4933C15.68 9.86342 18.6101 6.93329 22.24 6.93329ZM22.24 37.984C16.7733 37.984 11.9408 35.185 9.11996 30.9429C9.18556 26.5914 17.8666 24.208 22.24 24.208C26.5914 24.208 35.2944 26.5914 35.36 30.9429C32.5392 35.185 27.7066 37.984 22.24 37.984Z" fill="#BFBFBF"/>
</svg>
