<svg width="122" height="24" viewBox="0 0 122 24" fill="none" xmlns="http://www.w3.org/2000/svg">
<path d="M0.500119 6.61417C0.377283 6.4162 0.26322 6.14623 0.157932 5.80427C0.0526441 5.46232 0 5.10236 0 4.72441C0 4.0225 0.149158 3.51856 0.447475 3.2126C0.763339 2.90664 1.16694 2.75366 1.65829 2.75366H13.1347C13.2575 2.95163 13.3716 3.2216 13.4769 3.56355C13.5822 3.90551 13.6348 4.26547 13.6348 4.64342C13.6348 5.34533 13.4769 5.84927 13.161 6.15523C12.8627 6.46119 12.4679 6.61417 11.9765 6.61417H9.05478V19.0866C8.86175 19.1406 8.55466 19.1946 8.13351 19.2486C7.72991 19.3026 7.3263 19.3296 6.9227 19.3296C6.51909 19.3296 6.15936 19.2936 5.84349 19.2216C5.54518 19.1676 5.29073 19.0596 5.08015 18.8976C4.86958 18.7357 4.71165 18.5107 4.60636 18.2227C4.50107 17.9348 4.44842 17.5568 4.44842 17.0889V6.61417H0.500119Z" fill="#3077C6"/>
<path d="M18.942 19.1676C18.7665 19.2216 18.4858 19.2756 18.0997 19.3296C17.7312 19.3836 17.3451 19.4106 16.9415 19.4106C16.5555 19.4106 16.2045 19.3836 15.8886 19.3296C15.5903 19.2756 15.3359 19.1676 15.1253 19.0056C14.9147 18.8436 14.748 18.6277 14.6252 18.3577C14.5199 18.0697 14.4673 17.7008 14.4673 17.2508V9.15186C14.4673 8.73791 14.5374 8.38695 14.6778 8.09899C14.8358 7.79303 15.0551 7.52306 15.3359 7.28909C15.6166 7.05512 15.9588 6.84814 16.3624 6.66817C16.7836 6.47019 17.2311 6.29921 17.7049 6.15523C18.1787 6.01125 18.67 5.90326 19.1789 5.83127C19.6878 5.74128 20.1967 5.69629 20.7056 5.69629C21.5479 5.69629 22.2147 5.86727 22.7061 6.20922C23.1974 6.53318 23.4431 7.07312 23.4431 7.82902C23.4431 8.08099 23.408 8.33296 23.3378 8.58493C23.2676 8.8189 23.1798 9.03487 23.0746 9.23285C22.706 9.23285 22.3288 9.25084 21.9427 9.28684C21.5567 9.32283 21.1794 9.37683 20.8109 9.44882C20.4424 9.52081 20.0914 9.6018 19.758 9.69179C19.4421 9.76378 19.1701 9.85377 18.942 9.96175V19.1676Z" fill="#3077C6"/>
<path d="M25.1838 2.4297C25.1838 1.74578 25.4032 1.16985 25.8419 0.701911C26.2981 0.23397 26.8947 0 27.6318 0C28.3688 0 28.9566 0.23397 29.3953 0.701911C29.8516 1.16985 30.0797 1.74578 30.0797 2.4297C30.0797 3.11361 29.8516 3.68954 29.3953 4.15748C28.9566 4.62542 28.3688 4.85939 27.6318 4.85939C26.8947 4.85939 26.2981 4.62542 25.8419 4.15748C25.4032 3.68954 25.1838 3.11361 25.1838 2.4297ZM29.8691 19.1676C29.6761 19.2036 29.3866 19.2486 29.0005 19.3026C28.632 19.3746 28.2547 19.4106 27.8687 19.4106C27.4826 19.4106 27.1316 19.3836 26.8158 19.3296C26.5175 19.2756 26.263 19.1676 26.0524 19.0056C25.8419 18.8436 25.6752 18.6277 25.5523 18.3577C25.447 18.0697 25.3944 17.7008 25.3944 17.2508V6.26322C25.5874 6.22722 25.8682 6.18223 26.2367 6.12823C26.6228 6.05624 27.0088 6.02025 27.3949 6.02025C27.7809 6.02025 28.1231 6.04724 28.4214 6.10124C28.7373 6.15523 29.0005 6.26322 29.2111 6.4252C29.4217 6.58718 29.5796 6.81215 29.6849 7.10011C29.8077 7.37008 29.8691 7.73003 29.8691 8.17998V19.1676Z" fill="#3077C6"/>
<path d="M38.5877 5.66929C39.6406 5.66929 40.6145 5.81327 41.5094 6.10124C42.4219 6.3712 43.2028 6.79415 43.8521 7.37008C44.5014 7.94601 45.0103 8.67492 45.3788 9.5568C45.7473 10.4207 45.9316 11.4556 45.9316 12.6614C45.9316 13.8133 45.7736 14.8211 45.4578 15.685C45.1419 16.5489 44.6944 17.2778 44.1153 17.8718C43.5362 18.4477 42.8343 18.8796 42.0096 19.1676C41.2024 19.4556 40.2986 19.5996 39.2984 19.5996C38.5438 19.5996 37.8419 19.4826 37.1926 19.2486V23.73C37.0172 23.784 36.7364 23.838 36.3503 23.892C35.9643 23.964 35.5694 24 35.1658 24C34.7798 24 34.4288 23.973 34.113 23.919C33.8146 23.865 33.5602 23.757 33.3496 23.5951C33.139 23.4331 32.9811 23.2081 32.8758 22.9201C32.7705 22.6502 32.7179 22.2902 32.7179 21.8403V8.88189C32.7179 8.39595 32.8144 8 33.0074 7.69404C33.218 7.38808 33.4988 7.10911 33.8497 6.85714C34.3937 6.49719 35.0693 6.20922 35.8765 5.99325C36.6837 5.77728 37.5875 5.66929 38.5877 5.66929ZM38.6403 15.982C40.4478 15.982 41.3515 14.8751 41.3515 12.6614C41.3515 11.5096 41.1234 10.6547 40.6671 10.0967C40.2284 9.53881 39.5879 9.25984 38.7456 9.25984C38.4122 9.25984 38.1139 9.30484 37.8507 9.39483C37.5875 9.46682 37.3593 9.55681 37.1663 9.66479V15.604C37.3769 15.712 37.605 15.802 37.8507 15.874C38.0964 15.946 38.3596 15.982 38.6403 15.982Z" fill="#3077C6"/>
<path d="M62.724 19.0866C62.531 19.1406 62.2239 19.1946 61.8027 19.2486C61.3991 19.3026 60.9955 19.3296 60.5919 19.3296C60.1883 19.3296 59.8286 19.2936 59.5127 19.2216C59.2144 19.1676 58.9599 19.0596 58.7494 18.8976C58.5388 18.7357 58.3808 18.5107 58.2756 18.2227C58.1703 17.9348 58.1176 17.5568 58.1176 17.0889V12.8774H53.0638V19.0866C52.8708 19.1406 52.5637 19.1946 52.1425 19.2486C51.7389 19.3026 51.3353 19.3296 50.9317 19.3296C50.5281 19.3296 50.1684 19.2936 49.8525 19.2216C49.5542 19.1676 49.2997 19.0596 49.0892 18.8976C48.8786 18.7357 48.7207 18.5107 48.6154 18.2227C48.5101 17.9348 48.4574 17.5568 48.4574 17.0889V2.83465C48.6505 2.79865 48.9576 2.75366 49.3787 2.69966C49.7999 2.62767 50.2035 2.59168 50.5895 2.59168C50.9931 2.59168 51.3441 2.62767 51.6424 2.69966C51.9583 2.75366 52.2215 2.86164 52.4321 3.02362C52.6426 3.1856 52.8006 3.41057 52.9059 3.69854C53.0112 3.9865 53.0638 4.36445 53.0638 4.8324V9.15186H58.1176V2.83465C58.3107 2.79865 58.6177 2.75366 59.0389 2.69966C59.46 2.62767 59.8637 2.59168 60.2497 2.59168C60.6533 2.59168 61.0043 2.62767 61.3026 2.69966C61.6185 2.75366 61.8817 2.86164 62.0923 3.02362C62.3028 3.1856 62.4608 3.41057 62.5661 3.69854C62.6713 3.9865 62.724 4.36445 62.724 4.8324V19.0866Z" fill="#3077C6"/>
<path d="M79.0404 12.6344C79.0404 13.7503 78.8736 14.7492 78.5402 15.631C78.2068 16.4949 77.733 17.2238 77.1189 17.8178C76.5222 18.4117 75.8027 18.8616 74.9604 19.1676C74.1181 19.4736 73.1793 19.6265 72.144 19.6265C71.1087 19.6265 70.1698 19.4646 69.3275 19.1406C68.4852 18.8166 67.757 18.3577 67.1428 17.7638C66.5462 17.1519 66.0811 16.4139 65.7477 15.5501C65.4143 14.6862 65.2476 13.7143 65.2476 12.6344C65.2476 11.5726 65.4143 10.6097 65.7477 9.74578C66.0811 8.88189 66.5462 8.15298 67.1428 7.55905C67.757 6.94713 68.4852 6.47919 69.3275 6.15523C70.1698 5.83127 71.1087 5.66929 72.144 5.66929C73.1793 5.66929 74.1181 5.84027 74.9604 6.18223C75.8027 6.50619 76.5222 6.97413 77.1189 7.58605C77.733 8.17998 78.2068 8.90889 78.5402 9.77278C78.8736 10.6367 79.0404 11.5906 79.0404 12.6344ZM69.8276 12.6344C69.8276 13.7323 70.0294 14.5782 70.4331 15.1721C70.8542 15.748 71.4333 16.036 72.1703 16.036C72.9073 16.036 73.4689 15.739 73.8549 15.1451C74.2585 14.5512 74.4603 13.7143 74.4603 12.6344C74.4603 11.5546 74.2585 10.7267 73.8549 10.1507C73.4513 9.55681 72.881 9.25984 72.144 9.25984C71.407 9.25984 70.8367 9.55681 70.4331 10.1507C70.0294 10.7267 69.8276 11.5546 69.8276 12.6344Z" fill="#3077C6"/>
<path d="M81.2234 6.26322C81.3989 6.20922 81.6709 6.15523 82.0394 6.10124C82.4255 6.04724 82.8203 6.02025 83.2239 6.02025C83.61 6.02025 83.9522 6.04724 84.2505 6.10124C84.5663 6.15523 84.8296 6.26322 85.0401 6.4252C85.2507 6.58718 85.4087 6.81215 85.5139 7.10011C85.6368 7.37008 85.6982 7.73003 85.6982 8.17998V13.9843C85.6982 14.7222 85.8737 15.2531 86.2246 15.5771C86.5756 15.883 87.0845 16.036 87.7513 16.036C88.1549 16.036 88.4795 16 88.7252 15.928C88.9884 15.856 89.1903 15.784 89.3306 15.712V6.26322C89.5061 6.20922 89.7781 6.15523 90.1466 6.10124C90.5327 6.04724 90.9275 6.02025 91.3311 6.02025C91.7172 6.02025 92.0593 6.04724 92.3577 6.10124C92.6735 6.15523 92.9367 6.26322 93.1473 6.4252C93.3579 6.58718 93.5158 6.81215 93.6211 7.10011C93.744 7.37008 93.8054 7.73003 93.8054 8.17998V16.387C93.8054 17.2868 93.4369 17.9618 92.6999 18.4117C92.0857 18.8076 91.3487 19.1046 90.4888 19.3026C89.6465 19.5186 88.7252 19.6265 87.725 19.6265C86.7774 19.6265 85.9 19.5186 85.0928 19.3026C84.3031 19.0866 83.6188 18.7537 83.0397 18.3037C82.4606 17.8538 82.0131 17.2778 81.6972 16.5759C81.3814 15.856 81.2234 14.9921 81.2234 13.9843V6.26322Z" fill="#3077C6"/>
<path d="M107.336 15.2801C107.336 16.6479 106.836 17.7188 105.835 18.4927C104.835 19.2666 103.361 19.6535 101.413 19.6535C100.676 19.6535 99.9919 19.5996 99.3602 19.4916C98.7284 19.3836 98.1844 19.2216 97.7282 19.0056C97.2895 18.7717 96.9385 18.4837 96.6753 18.1417C96.4296 17.7998 96.3068 17.3948 96.3068 16.9269C96.3068 16.4949 96.3945 16.135 96.57 15.847C96.7455 15.5411 96.9561 15.2891 97.2017 15.0911C97.7106 15.3791 98.2897 15.64 98.939 15.874C99.6058 16.09 100.369 16.198 101.229 16.198C101.773 16.198 102.185 16.117 102.466 15.955C102.764 15.793 102.914 15.5771 102.914 15.3071C102.914 15.0551 102.808 14.8571 102.598 14.7132C102.387 14.5692 102.036 14.4522 101.545 14.3622L100.755 14.2002C99.2285 13.8943 98.0879 13.4173 97.3334 12.7694C96.5963 12.1035 96.2278 11.1586 96.2278 9.93476C96.2278 9.26884 96.3682 8.66592 96.649 8.12598C96.9297 7.58605 97.3246 7.13611 97.8335 6.77615C98.3424 6.4162 98.9478 6.13723 99.6497 5.93926C100.369 5.74128 101.159 5.64229 102.019 5.64229C102.668 5.64229 103.273 5.69629 103.835 5.80427C104.414 5.89426 104.914 6.03824 105.335 6.23622C105.756 6.4342 106.09 6.69516 106.335 7.01912C106.581 7.32508 106.704 7.69404 106.704 8.12598C106.704 8.53993 106.625 8.89989 106.467 9.20585C106.327 9.49381 106.142 9.73678 105.914 9.93476C105.774 9.84477 105.563 9.75478 105.283 9.66479C105.002 9.55681 104.695 9.46682 104.361 9.39483C104.028 9.30484 103.686 9.23285 103.335 9.17885C103.001 9.12486 102.694 9.09786 102.414 9.09786C101.834 9.09786 101.387 9.16985 101.071 9.31384C100.755 9.43982 100.597 9.64679 100.597 9.93476C100.597 10.1327 100.685 10.2947 100.861 10.4207C101.036 10.5467 101.369 10.6637 101.861 10.7717L102.677 10.9606C104.361 11.3566 105.555 11.9055 106.257 12.6074C106.976 13.2913 107.336 14.1822 107.336 15.2801Z" fill="#3077C6"/>
<path d="M116.392 19.6265C115.357 19.6265 114.392 19.4826 113.497 19.1946C112.62 18.8886 111.847 18.4387 111.181 17.8448C110.531 17.2508 110.014 16.5039 109.628 15.604C109.259 14.7042 109.075 13.6513 109.075 12.4454C109.075 11.2576 109.259 10.2407 109.628 9.39483C110.014 8.53093 110.514 7.82902 111.128 7.28909C111.742 6.73116 112.444 6.32621 113.234 6.07424C114.023 5.80427 114.831 5.66929 115.655 5.66929C116.585 5.66929 117.428 5.81327 118.182 6.10124C118.954 6.3892 119.612 6.78515 120.156 7.28909C120.718 7.79303 121.148 8.39595 121.446 9.09786C121.762 9.79978 121.92 10.5647 121.92 11.3926C121.92 12.0045 121.753 12.4724 121.42 12.7964C121.086 13.1204 120.621 13.3273 120.025 13.4173L113.523 14.4162C113.716 15.0101 114.111 15.4601 114.708 15.766C115.304 16.054 115.989 16.198 116.761 16.198C117.48 16.198 118.156 16.108 118.788 15.928C119.437 15.73 119.963 15.5051 120.367 15.2531C120.648 15.4331 120.885 15.685 121.078 16.009C121.271 16.333 121.367 16.6749 121.367 17.0349C121.367 17.8448 120.999 18.4477 120.262 18.8436C119.7 19.1496 119.068 19.3566 118.367 19.4646C117.665 19.5726 117.007 19.6265 116.392 19.6265ZM115.655 9.01687C115.234 9.01687 114.866 9.08886 114.55 9.23285C114.252 9.37683 114.006 9.5658 113.813 9.79978C113.62 10.0157 113.471 10.2677 113.365 10.5557C113.278 10.8256 113.225 11.1046 113.207 11.3926L117.708 10.6367C117.656 10.2767 117.463 9.91676 117.129 9.5568C116.796 9.19685 116.305 9.01687 115.655 9.01687Z" fill="#3077C6"/>
</svg>
