<svg width="16" height="16" viewBox="0 0 16 16" fill="none" xmlns="http://www.w3.org/2000/svg">
<path d="M13.6587 5.65871V2.34129H10.3413L8 0L5.65871 2.34129H2.34129V5.65871L0 8L2.34129 10.3413V13.6587H5.65871L8 16L10.3413 13.6587H13.6587V10.3413L16 8L13.6587 5.65871ZM8 12.244C7.37047 12.244 6.76923 12.1026 6.23165 11.855C7.68877 11.183 8.70734 9.71176 8.70734 8C8.70734 6.28824 7.68877 4.81698 6.23165 4.145C6.76923 3.89744 7.37047 3.75597 8 3.75597C10.3413 3.75597 12.244 5.65871 12.244 8C12.244 10.3413 10.3413 12.244 8 12.244Z" fill="white"/>
</svg>
