<svg width="0" height="0" class="hidden">
  <symbol fill="none" xmlns="http://www.w3.org/2000/svg" viewBox="0 0 16 16" id="account_mobile">
    <path d="M13.659 5.659V2.34H10.34L8 0 5.659 2.341H2.34V5.66L0 8l2.341 2.341v3.318H5.66L8 16l2.341-2.341h3.318V10.34L16 8l-2.341-2.341zM8 12.244c-.63 0-1.23-.141-1.768-.389A4.248 4.248 0 008.707 8a4.248 4.248 0 00-2.475-3.855A4.227 4.227 0 018 3.756 4.247 4.247 0 0112.244 8 4.247 4.247 0 018 12.244z" fill="#fff"></path>
  </symbol>
  <symbol fill="none" xmlns="http://www.w3.org/2000/svg" viewBox="0 0 30 30" id="night_mobile">
    <path d="M25.61 10.61V4.39h-6.22L15 0l-4.39 4.39H4.39v6.22L0 15l4.39 4.39v6.22h6.22L15 30l4.39-4.39h6.22v-6.22L30 15l-4.39-4.39zM15 22.958a7.924 7.924 0 01-3.316-.73c2.732-1.26 4.642-4.018 4.642-7.228s-1.91-5.968-4.642-7.228A7.924 7.924 0 0115 7.042c4.39 0 7.958 3.568 7.958 7.958 0 4.39-3.568 7.958-7.958 7.958z" fill="#fff"></path>
  </symbol>
  <symbol fill="none" xmlns="http://www.w3.org/2000/svg" viewBox="0 0 24 16" id="night">
    <path d="M0 16h24v-2.667H0V16zm0-6.667h24V6.667H0v2.666zM0 0v2.667h24V0H0z" fill="#fff"></path>
  </symbol>
  <symbol fill="none" xmlns="http://www.w3.org/2000/svg" viewBox="0 0 24 24" id="menu_header_mobile">
    <path d="M12 0C5.376 0 0 5.376 0 12s5.376 12 12 12 12-5.376 12-12S18.624 0 12 0zm0 3.6c1.992 0 3.6 1.608 3.6 3.6s-1.608 3.6-3.6 3.6a3.595 3.595 0 01-3.6-3.6c0-1.992 1.608-3.6 3.6-3.6zm0 17.04a8.64 8.64 0 01-7.2-3.864c.036-2.388 4.8-3.696 7.2-3.696 2.388 0 7.164 1.308 7.2 3.696A8.64 8.64 0 0112 20.64z" fill="#fff"></path>
  </symbol>
  <symbol fill="none" xmlns="http://www.w3.org/2000/svg" viewBox="0 0 40 40" id="account">
    <path d="M20 0C8.96 0 0 8.96 0 20s8.96 20 20 20 20-8.96 20-20S31.04 0 20 0zm0 6c3.32 0 6 2.68 6 6s-2.68 6-6 6-6-2.68-6-6 2.68-6 6-6zm0 28.4c-5 0-9.42-2.56-12-6.44.06-3.98 8-6.16 12-6.16 3.98 0 11.94 2.18 12 6.16-2.58 3.88-7 6.44-12 6.44z" fill="#fff"></path>
  </symbol>
</svg>